<svg xmlns="http://www.w3.org/2000/svg" xmlns:xlink="http://www.w3.org/1999/xlink" width="77" height="77" viewBox="0 0 77 77">
  <defs>
    <filter id="Path_13" x="0" y="0" width="77" height="77" filterUnits="userSpaceOnUse">
      <feOffset dy="10" input="SourceAlpha"/>
      <feGaussianBlur stdDeviation="10" result="blur"/>
      <feFlood flood-color="#4236dd" flood-opacity="0.2"/>
      <feComposite operator="in" in2="blur"/>
      <feComposite in="SourceGraphic"/>
    </filter>
    <filter id="Path_14" x="5.469" y="3.275" width="66.061" height="66.061" filterUnits="userSpaceOnUse">
      <feOffset dy="10" input="SourceAlpha"/>
      <feGaussianBlur stdDeviation="10" result="blur-2"/>
      <feFlood flood-color="#0089ff" flood-opacity="0.2"/>
      <feComposite operator="in" in2="blur-2"/>
      <feComposite in="SourceGraphic"/>
    </filter>
  </defs>
  <g id="Group_1194" data-name="Group 1194" transform="translate(-160.112 -445)">
    <g id="Group_19" data-name="Group 19" transform="translate(190.612 465.5)">
      <g transform="matrix(1, 0, 0, 1, -30.5, -20.5)" filter="url(#Path_13)">
        <path id="Path_13-2" data-name="Path 13" d="M597.631,48.095a4.349,4.349,0,0,0-1.322-2.808c-.887-1.053-2.846-1.5-6.424-1.5s-5.537.442-6.424,1.5A4.349,4.349,0,0,0,582.14,48.1a26.957,26.957,0,0,0,0,7.395,4.347,4.347,0,0,0,1.322,2.808,4.1,4.1,0,0,0,2.395,1.182,1.722,1.722,0,0,0,.481.128c.235.025.471.035.706.055a26.786,26.786,0,0,0,2.842.129h0a26.854,26.854,0,0,0,2.816-.127c.245-.02.489-.032.734-.057a1.754,1.754,0,0,0,.492-.132,4.083,4.083,0,0,0,2.382-1.179,4.349,4.349,0,0,0,1.322-2.808,27,27,0,0,0,0-7.395Zm-1.617,6.623A3.491,3.491,0,0,1,595,56.912a15.316,15.316,0,0,0-.641-2.394,1.743,1.743,0,0,0-1.414-1.319,19.139,19.139,0,0,0-6.1,0,1.742,1.742,0,0,0-1.414,1.326c-.4,1.7-.6,1.706-.656,2.392a3.482,3.482,0,0,1-1.019-2.2,21.358,21.358,0,0,1,0-5.851,3.441,3.441,0,0,1,1.046-2.221c.7-.834,2.252-1.183,5.082-1.183s4.38.35,5.082,1.183a3.442,3.442,0,0,1,1.046,2.222,21.358,21.358,0,0,1,0,5.851Z" transform="translate(-551.38 -23.29)" fill="#8eb61f" stroke="rgba(0,0,0,0)" stroke-width="1"/>
      </g>
    </g>
    <g id="Group_20" data-name="Group 20" transform="translate(196.081 468.775)">
      <g transform="matrix(1, 0, 0, 1, -35.97, -23.77)" filter="url(#Path_14)">
        <path id="Path_14-2" data-name="Path 14" d="M597.513,51.633a2.531,2.531,0,1,0,2.53,2.53A2.531,2.531,0,0,0,597.513,51.633Z" transform="translate(-559.01 -27.86)" fill="#8eb61f" stroke="rgba(0,0,0,0)" stroke-width="1"/>
      </g>
    </g>
  </g>
</svg>
