<svg xmlns="http://www.w3.org/2000/svg" xmlns:xlink="http://www.w3.org/1999/xlink" width="77" height="77" viewBox="0 0 77 77">
  <defs>
    <filter id="Path_70" x="0" y="0" width="77" height="77" filterUnits="userSpaceOnUse">
      <feOffset dy="10" input="SourceAlpha"/>
      <feGaussianBlur stdDeviation="10" result="blur"/>
      <feFlood flood-color="#4236dd" flood-opacity="0.2"/>
      <feComposite operator="in" in2="blur"/>
      <feComposite in="SourceGraphic"/>
    </filter>
  </defs>
  <g id="Group_110" data-name="Group 110" transform="translate(30.5 20.5)">
    <g transform="matrix(1, 0, 0, 1, -30.5, -20.5)" filter="url(#Path_70)">
      <path id="Path_70-2" data-name="Path 70" d="M82.033,381.887l-.08,0a6.589,6.589,0,0,0-.4-.964l.092-.1a1.7,1.7,0,0,0-.078-2.321l-.534-.535a1.706,1.706,0,0,0-2.29-.1l-.153.127a6.507,6.507,0,0,0-.908-.374l0-.1a1.694,1.694,0,0,0-1.7-1.611h-.663a1.7,1.7,0,0,0-1.7,1.593c0,.041,0,.083-.006.124a6.566,6.566,0,0,0-.944.394l-.1-.088a1.7,1.7,0,0,0-2.326.075l-.5.5a1.7,1.7,0,0,0-.08,2.318c.031.036.064.071.1.107a6.528,6.528,0,0,0-.4.958l-.08,0a1.7,1.7,0,0,0-1.629,1.7v.64a1.7,1.7,0,0,0,1.611,1.7l.1,0a6.511,6.511,0,0,0,.374.909l-.125.15a1.7,1.7,0,0,0,.1,2.292l.526.526a1.7,1.7,0,0,0,2.326.073l.094-.085a6.591,6.591,0,0,0,.948.4c0,.041,0,.083.006.124a1.7,1.7,0,0,0,1.7,1.593h.655a1.7,1.7,0,0,0,1.7-1.633c0-.024,0-.048,0-.072a6.538,6.538,0,0,0,.971-.4l.1.093a1.7,1.7,0,0,0,2.319-.079l.493-.493a1.7,1.7,0,0,0,.074-2.326l-.087-.1a6.509,6.509,0,0,0,.4-.969l.081,0a1.7,1.7,0,0,0,1.628-1.7v-.641A1.7,1.7,0,0,0,82.033,381.887Zm-6.372,4.518a2.5,2.5,0,1,1,2.5-2.5A2.5,2.5,0,0,1,75.661,386.406Z" transform="translate(-37.16 -355.41)" fill="#8eb61f" stroke="rgba(0,0,0,0)" stroke-width="1"/>
    </g>
  </g>
</svg>
