<svg xmlns="http://www.w3.org/2000/svg" xmlns:xlink="http://www.w3.org/1999/xlink" width="77" height="73.372" viewBox="0 0 77 73.372">
  <defs>
    <filter id="Path_82" x="0.623" y="0" width="75.755" height="68.913" filterUnits="userSpaceOnUse">
      <feOffset dy="10" input="SourceAlpha"/>
      <feGaussianBlur stdDeviation="10" result="blur"/>
      <feFlood flood-color="#0089ff" flood-opacity="0.2"/>
      <feComposite operator="in" in2="blur"/>
      <feComposite in="SourceGraphic"/>
    </filter>
    <filter id="Path_83" x="0" y="3.432" width="77" height="69.939" filterUnits="userSpaceOnUse">
      <feOffset dy="10" input="SourceAlpha"/>
      <feGaussianBlur stdDeviation="10" result="blur-2"/>
      <feFlood flood-color="#4236dd" flood-opacity="0.2"/>
      <feComposite operator="in" in2="blur-2"/>
      <feComposite in="SourceGraphic"/>
    </filter>
    <filter id="Path_84" x="0.73" y="1.701" width="75.529" height="67.212" filterUnits="userSpaceOnUse">
      <feOffset dy="10" input="SourceAlpha"/>
      <feGaussianBlur stdDeviation="10" result="blur-3"/>
      <feFlood flood-color="#4236dd" flood-opacity="0.2"/>
      <feComposite operator="in" in2="blur-3"/>
      <feComposite in="SourceGraphic"/>
    </filter>
  </defs>
  <g id="Group_124" data-name="Group 124" transform="translate(-38.559 -481.898)">
    <g id="Group_120" data-name="Group 120" transform="translate(69.682 502.398)">
      <g transform="matrix(1, 0, 0, 1, -31.12, -20.5)" filter="url(#Path_82)">
        <path id="Path_82-2" data-name="Path 82" d="M78.765,509.747q.177-.12.445-.313l.227-.163.123-.088.833-.579,3.02-2.1a3.927,3.927,0,0,0,1-1.013,2.18,2.18,0,0,0,.4-1.243,1.329,1.329,0,0,0-1.318-1.318,34.547,34.547,0,0,0-12.12,0,1.176,1.176,0,0,0-.975.428,1.658,1.658,0,0,0-.341,1.07,1.926,1.926,0,0,0,.453,1.125,4.082,4.082,0,0,0,.963.951q.28.2,1.688,1.173.76.526,1.326.921l.831.581.123.088.227.163q.268.194.445.313c.118.08.26.169.428.268a2.524,2.524,0,0,0,.474.222,1.3,1.3,0,0,0,.411.074h.017a1.3,1.3,0,0,0,.411-.074,2.484,2.484,0,0,0,.474-.222Q78.587,509.867,78.765,509.747Z" transform="translate(-38.94 -481.9)" fill="#8eb61f" stroke="rgba(0,0,0,0)" stroke-width="1"/>
      </g>
    </g>
    <g id="Group_123" data-name="Group 123" transform="translate(69.059 504.099)">
      <g id="Group_121" data-name="Group 121" transform="translate(0 2.408)">
        <g transform="matrix(1, 0, 0, 1, -30.5, -24.61)" filter="url(#Path_83)">
          <path id="Path_83-2" data-name="Path 83" d="M83.734,510.057l-3.02,2.1-.826.575-.115.082-.222.16c-.192.139-.351.251-.479.337s-.3.193-.49.306a3.713,3.713,0,0,1-.711.331,2.463,2.463,0,0,1-1.622,0,3.742,3.742,0,0,1-.711-.331c-.193-.113-.357-.216-.492-.307s-.286-.2-.477-.335l-.228-.164-.109-.079c-.229-.161-.505-.354-.827-.578l-1.323-.919c-.944-.654-1.51-1.047-1.678-1.166a5.151,5.151,0,0,1-1.076-1.006,15.749,15.749,0,0,0,.071,6.155,2.048,2.048,0,0,0,1.674,1.571,35.164,35.164,0,0,0,12.005,0,2.037,2.037,0,0,0,1.675-1.58,16.829,16.829,0,0,0,.041-6.167A5.189,5.189,0,0,1,83.734,510.057Z" transform="translate(-38.56 -484.43)" fill="#8eb61f" stroke="rgba(0,0,0,0)" stroke-width="1"/>
        </g>
      </g>
      <g id="Group_122" data-name="Group 122" transform="translate(0.843)">
        <g transform="matrix(1, 0, 0, 1, -31.34, -22.2)" filter="url(#Path_84)">
          <path id="Path_84-2" data-name="Path 84" d="M71.618,507.556q.28.2,1.688,1.173.76.526,1.326.921l.831.581.123.088.227.163q.268.194.445.313c.118.08.26.169.428.268a2.524,2.524,0,0,0,.474.222,1.3,1.3,0,0,0,.411.074h.017a1.3,1.3,0,0,0,.411-.074,2.484,2.484,0,0,0,.474-.222q.251-.148.428-.268t.445-.313l.227-.163.123-.088.833-.579,3.02-2.1a3.926,3.926,0,0,0,1-1.013,2.488,2.488,0,0,0,.184-.319,2.089,2.089,0,0,0-1.194-.624,39.194,39.194,0,0,0-11.917.006,2.094,2.094,0,0,0-1.2.633,2.953,2.953,0,0,0,.233.366A4.082,4.082,0,0,0,71.618,507.556Z" transform="translate(-39.08 -482.95)" fill="#8eb61f" stroke="rgba(0,0,0,0)" stroke-width="1"/>
        </g>
      </g>
    </g>
  </g>
</svg>
