<svg xmlns="http://www.w3.org/2000/svg" width="159.249" height="42.889" viewBox="0 0 159.249 42.889">
  <g id="netsign_logo_full_EN" transform="translate(-2.5)">
    <rect id="Rectangle_2056" data-name="Rectangle 2056" width="56.913" height="31.297" transform="translate(13.786 2.917)" fill="#fff"/>
    <rect id="Rectangle_2057" data-name="Rectangle 2057" width="4.235" height="5.427" transform="translate(70.369 11.033)" fill="#fff"/>
    <path id="Path_3808" data-name="Path 3808" d="M302.255,49.818c-.279-1.851-1.217-2.739-2.79-2.739a2.517,2.517,0,0,0-2.739,2.511,2.272,2.272,0,0,0,1.116,1.9,6.628,6.628,0,0,0,2.333.938,10.333,10.333,0,0,1,4.641,2.384,6.653,6.653,0,0,1,2.105,4.946c0,3.88-3.5,7.177-7.71,7.177a7.654,7.654,0,0,1-6.949-3.956,8.541,8.541,0,0,1-.862-3.956h4.235c.228,2.663,1.5,4.109,3.728,4.109a3.009,3.009,0,0,0,3.322-2.967c0-1.725-.888-2.485-3.957-3.5a11.814,11.814,0,0,1-4.362-2.156,5.389,5.389,0,0,1-1.927-4.235,6.829,6.829,0,0,1,7.152-6.975,6.53,6.53,0,0,1,6.8,6.569Z" transform="translate(-215.629 -32.318)" fill="#1f1f1f"/>
    <path id="Path_3809" data-name="Path 3809" d="M369.185,20.646H365V15.7h4.185Zm0,25.083H365V23.207h4.185Z" transform="translate(-270.562 -11.718)" fill="#1f1f1f"/>
    <path id="Path_3810" data-name="Path 3810" d="M417.419,63.445a10.667,10.667,0,0,1-2.917,7.71,13.372,13.372,0,0,1-9.232,3.652,11.342,11.342,0,0,1-7.71-2.562,10.807,10.807,0,0,1-3.475-4.514H398.8a7.549,7.549,0,0,0,6.341,3.246c4.819,0,8.014-3.018,8.014-7.558v-.482a10.063,10.063,0,0,1-8.014,3.652A12.166,12.166,0,0,1,393.3,54.644a12.349,12.349,0,0,1,3.728-8.547,11.924,11.924,0,0,1,8.37-3.2,10.248,10.248,0,0,1,8.065,3.322V42.8h3.931V63.445Zm-19.909-8.7a7.925,7.925,0,0,0,7.786,7.964,8.046,8.046,0,0,0,7.938-8.344,7.8,7.8,0,0,0-7.786-7.71A7.921,7.921,0,0,0,397.51,54.746Z" transform="translate(-291.685 -31.945)" fill="#1f1f1f"/>
    <path id="Path_3811" data-name="Path 3811" d="M520.975,66.1V53.855a9.34,9.34,0,0,0-.938-4.717A5.543,5.543,0,0,0,515.4,46.83c-3.7,0-5.909,2.612-5.909,7.025V66.1H505.2V43.583h3.931v2.384A8.05,8.05,0,0,1,515.8,43c5.63,0,9.359,3.728,9.359,9.283V66.1Z" transform="translate(-375.205 -32.094)" fill="#1f1f1f"/>
    <path id="Path_3812" data-name="Path 3812" d="M6.913,0A4.416,4.416,0,0,0,2.5,4.413h0V34.239H16.272V11.768h3.906v2.384a8.05,8.05,0,0,1,6.67-2.967c5.63,0,9.359,3.728,9.359,9.283V34.239H46.858a11.967,11.967,0,0,1-7.812-11.261,11.5,11.5,0,1,1,22.978-.254c0,.457-.051,1.344-.127,2.156H43.282a7.611,7.611,0,0,0,7.431,6.163,7.119,7.119,0,0,0,6.341-3.83h4.235a11.508,11.508,0,0,1-7,7.025H65.677V15.6H62.634v-3.83H65.7V4.235h4.185v7.533H74.63V15.6H69.887V34.239h.33a4.416,4.416,0,0,0,4.413-4.413h0V0Z" fill="#8eb61f" fill-rule="evenodd"/>
    <path id="Path_3813" data-name="Path 3813" d="M79.509,59.1c-3.7,0-5.909,2.612-5.909,7.025v12.2H85.089V66.151a9.077,9.077,0,0,0-.938-4.717A5.5,5.5,0,0,0,79.509,59.1Z" transform="translate(-53.068 -44.111)" fill="#8eb61f" fill-rule="evenodd"/>
    <path id="Path_3814" data-name="Path 3814" d="M170.552,58.5a7.471,7.471,0,0,0-5.4,2.485A6.979,6.979,0,0,0,163.4,65.3h14.558A7.341,7.341,0,0,0,170.552,58.5Z" transform="translate(-120.092 -43.663)" fill="#8eb61f" fill-rule="evenodd"/>
    <path id="Path_3815" data-name="Path 3815" d="M208.31,83.882a3.108,3.108,0,0,0-.051-.482c-1.344.178-2.739.33-4.159.482Z" transform="translate(-150.47 -62.248)" fill="#b2d62d"/>
    <path id="Path_3816" data-name="Path 3816" d="M8.4,24.717V10.033A4.122,4.122,0,0,1,12.635,6H77.512V16.221h1.5v3.83h-1.5v2.384" transform="translate(-4.404 -4.478)" fill="none"/>
    <path id="Path_3817" data-name="Path 3817" d="M20.675,16.246h3.906V18.63a8.05,8.05,0,0,1,6.67-2.967c5.63,0,9.359,3.728,9.359,9.283v1.9h2.866a11.456,11.456,0,0,1,22.75-1.826c1.319-.228,2.612-.457,3.855-.71V20.076H67.037v-3.83h3.069V8.714h4.185v7.533h3.246V6h-64.9A4.138,4.138,0,0,0,8.4,10.033V24.717c3.8.558,7.913,1.014,12.275,1.344Z" transform="translate(-4.404 -4.478)" fill="#b2d62d"/>
    <path id="Path_3818" data-name="Path 3818" d="M84.151,61.408A5.543,5.543,0,0,0,79.509,59.1c-3.652,0-5.859,2.562-5.909,6.873,3.7.228,7.533.355,11.489.431v-.279A9.139,9.139,0,0,0,84.151,61.408Z" transform="translate(-53.068 -44.111)" fill="#b2d62d"/>
    <path id="Path_3819" data-name="Path 3819" d="M170.552,58.5a7.471,7.471,0,0,0-5.4,2.485A6.979,6.979,0,0,0,163.4,65.3h10.348c1.42-.152,2.815-.3,4.159-.482A7.358,7.358,0,0,0,170.552,58.5Z" transform="translate(-120.092 -43.663)" fill="#b2d62d"/>
    <path id="Path_3820" data-name="Path 3820" d="M268.1,61.5v3.272c1.116-.279,2.207-.583,3.246-.888V61.5Z" transform="translate(-198.238 -45.902)" fill="#b2d62d"/>
    <path id="Path_3821" data-name="Path 3821" d="M2.5,142.285H4.859a2.855,2.855,0,0,1,2.232.888,3.632,3.632,0,0,1,.127,4.793,3.27,3.27,0,0,1-2.638.964H2.5Zm1.75,5.757a3.122,3.122,0,0,0,2.029-.558,2.338,2.338,0,0,0,.812-1.851,2.642,2.642,0,0,0-.71-1.8,2.13,2.13,0,0,0-1.7-.659H3.464v4.87Z" transform="translate(0 -106.195)" fill="#1f1f1f"/>
    <path id="Path_3822" data-name="Path 3822" d="M28.2,148.945V142.3h.964v6.645Z" transform="translate(-19.182 -106.21)" fill="#1f1f1f"/>
    <path id="Path_3823" data-name="Path 3823" d="M42.446,145.347a3.315,3.315,0,0,1-.659,2.054,3.51,3.51,0,1,1,.178-3.7H40.848a2.3,2.3,0,0,0-1.826-.913,2.527,2.527,0,0,0-2.435,2.612,2.554,2.554,0,0,0,2.435,2.511,2.376,2.376,0,0,0,1.6-.609,2.2,2.2,0,0,0,.71-1.065H38.235v-.888Z" transform="translate(-24.627 -105.909)" fill="#1f1f1f"/>
    <path id="Path_3824" data-name="Path 3824" d="M66.7,148.945V142.3h.964v6.645Z" transform="translate(-47.918 -106.21)" fill="#1f1f1f"/>
    <path id="Path_3825" data-name="Path 3825" d="M74.893,148.945v-5.757H73.6V142.3h3.5v.888H75.832v5.757Z" transform="translate(-53.068 -106.21)" fill="#1f1f1f"/>
    <path id="Path_3826" data-name="Path 3826" d="M91.37,148.945l-.736-1.953H88.25l-.736,1.953H86.5l2.536-6.645h.888l2.511,6.645Zm-1.9-5.377-.862,2.536h1.7Z" transform="translate(-62.696 -106.21)" fill="#1f1f1f"/>
    <path id="Path_3827" data-name="Path 3827" d="M112.4,148.945V142.3h.964v5.757h2.308v.888Z" transform="translate(-82.027 -106.21)" fill="#1f1f1f"/>
    <path id="Path_3828" data-name="Path 3828" d="M139.143,143.648a.933.933,0,0,0-.888-.964.909.909,0,0,0-.913.913.809.809,0,0,0,.355.685,2.588,2.588,0,0,0,.735.279,2.189,2.189,0,0,1,1.293.685,1.855,1.855,0,0,1,.507,1.344,2.068,2.068,0,0,1-2.029,2.105,2.043,2.043,0,0,1-1.674-.786,1.992,1.992,0,0,1-.431-1.293h.964a1.435,1.435,0,0,0,.2.71,1.133,1.133,0,0,0,.913.507,1.072,1.072,0,0,0,1.065-1.065v-.051a.957.957,0,0,0-.533-.862,3.389,3.389,0,0,0-.457-.178l-.178-.051-.076-.051-.1-.025c-.736-.228-.862-.3-1.116-.583a1.772,1.772,0,0,1-.457-1.217,1.874,1.874,0,0,1,1.8-1.953h.127a1.708,1.708,0,0,1,1.547.888,1.922,1.922,0,0,1,.279.964Z" transform="translate(-99.716 -105.833)" fill="#1f1f1f"/>
    <path id="Path_3829" data-name="Path 3829" d="M156.4,148.945V142.3h.964v6.645Z" transform="translate(-114.868 -106.21)" fill="#1f1f1f"/>
    <path id="Path_3830" data-name="Path 3830" d="M170.72,145.422a3.315,3.315,0,0,1-.659,2.054,3.483,3.483,0,0,1-2.739,1.395,3.438,3.438,0,1,1-.178-6.873,3.478,3.478,0,0,1,3.12,1.8h-1.116a2.3,2.3,0,0,0-1.826-.913,2.527,2.527,0,0,0-2.435,2.612,2.558,2.558,0,0,0,2.46,2.511,2.376,2.376,0,0,0,1.6-.609,2.2,2.2,0,0,0,.71-1.065h-3.094v-.888h4.159Z" transform="translate(-120.387 -105.984)" fill="#1f1f1f"/>
    <path id="Path_3831" data-name="Path 3831" d="M199.186,148.945l-3.322-5.123v5.123H194.9V142.3h1.065l3.272,5.047V142.3h.964v6.645Z" transform="translate(-143.603 -106.21)" fill="#1f1f1f"/>
    <path id="Path_3832" data-name="Path 3832" d="M223.195,148.945l-.736-1.953H220.05l-.736,1.953H218.3l2.511-6.645h.888l2.511,6.645Zm-1.928-5.377-.862,2.536h1.7Z" transform="translate(-161.069 -106.21)" fill="#1f1f1f"/>
    <path id="Path_3833" data-name="Path 3833" d="M248.42,145.422a3.315,3.315,0,0,1-.659,2.054,3.522,3.522,0,0,1-2.739,1.395,3.438,3.438,0,1,1-.178-6.873,3.479,3.479,0,0,1,3.12,1.8h-1.116a2.3,2.3,0,0,0-1.826-.913,2.527,2.527,0,0,0-2.435,2.612,2.558,2.558,0,0,0,2.46,2.511,2.376,2.376,0,0,0,1.6-.609,2.2,2.2,0,0,0,.71-1.065h-3.094v-.888h4.159Z" transform="translate(-178.381 -105.984)" fill="#1f1f1f"/>
    <path id="Path_3834" data-name="Path 3834" d="M272.7,148.945V142.3h3.576v.888h-2.612v1.953h2.612v.888h-2.612v2.029h2.612v.888Z" transform="translate(-201.672 -106.21)" fill="#1f1f1f"/>
    <path id="Path_3835" data-name="Path 3835" d="M588.3,131.314V130.3h.862v1.014Z" transform="translate(-437.229 -97.253)" fill="#1f1f1f"/>
    <path id="Path_3836" data-name="Path 3836" d="M595.492,116.088v-5.351H594.3V109.9h3.272v.837h-1.167v5.351Z" transform="translate(-441.707 -82.027)" fill="#1f1f1f"/>
    <path id="Path_3837" data-name="Path 3837" d="M611.086,116.088,608.6,109.9h.964l1.8,4.641,1.8-4.641h.964l-2.485,6.188h-.558Z" transform="translate(-452.38 -82.027)" fill="#1f1f1f"/>
  </g>
</svg>
